<?xml version="1.0" encoding="UTF-8"?>
<svg id="_图层_2" data-name="图层 2" xmlns="http://www.w3.org/2000/svg" xmlns:xlink="http://www.w3.org/1999/xlink" viewBox="0 0 63.15 63.15">
  <defs>
    <style>
      .cls-1 {
        fill: #fff;
      }

      .cls-2 {
        clip-path: url(#clippath);
      }

      .cls-3 {
        fill: none;
      }
    </style>
    <clipPath id="clippath">
      <circle class="cls-3" cx="31.58" cy="31.58" r="31.58"/>
    </clipPath>
  </defs>
  <g id="LOGO">
    <g class="cls-2">
      <rect class="cls-1" x="-43.94" y="-10.53" width="141.91" height="117.47"/>
      <g>
        <path d="M28.81,8.28c-.85-1.15-1.99-1.4-3.33-1.3,.41-.56,1.41-.67,2.18-.29,.67,.33,1.29,.77,1.98,1.18,2.38-1.38,4.89-1.16,7.44-.15,1.98,.78,3.75,1.9,5.4,3.21,1.75,1.39,3.33,2.96,4.7,4.76,.99,1.3,1.87,2.65,2.54,4.12,.6,1.32,1.1,2.72,1.46,4.12,.32,1.26,.5,2.57,.55,3.87,.08,2-.36,3.94-1.04,5.82-.67,1.85-1.57,3.59-2.87,5.08-.46,.53-1.09,.93-1.68,1.33-.6,.4-1.22,.77-1.87,1.06-1.47,.64-3,.72-4.54,.32-.34-.09-.49,.01-.72,.27-1.08,1.22-2.37,2.17-3.96,2.61-.83,.23-1.72,.45-2.56,.4-.99-.06-1.99-.35-2.95-.67-1.18-.39-2.23-1.06-3.19-1.87-.39-.33-.88-.4-1.42-.15-2.32,1.07-4.68,1.19-7.07,.2-1.52-.63-2.89-1.44-4.02-2.65-1.61-1.73-2.3-3.84-2.57-6.13-.25-2.06-.14-4.1,.25-6.13,.37-1.93,.89-3.82,1.68-5.62,.83-1.9,1.77-3.74,2.99-5.41,.68-.93,1.42-1.83,2.23-2.64,.97-.98,2-1.93,3.1-2.77,1.99-1.5,4.22-2.45,6.76-2.48,.15,0,.3-.05,.53-.09Zm.73,4.33c-.06,0-.11,0-.17,0-.06,.17-.12,.33-.18,.5-.24,.74-.41,1.51-.72,2.21-.62,1.4-1.26,2.8-1.99,4.14-.89,1.63-1.79,3.27-2.85,4.79-.84,1.19-1.93,2.22-2.92,3.3-.23,.25-.47,.43-.24,.83,.13,.23,.14,.52,.22,.78,.5,1.61,.97,3.22,1.52,4.81,.74,2.13,1.97,4,3.47,5.66,1.19,1.32,2.59,2.41,4.21,3.2,2.2,1.08,4.4,.95,6.42-.26,1.39-.84,2.63-1.94,3.55-3.38,1-1.57,1.82-3.2,2.36-4.97,.54-1.73,.95-3.5,1.45-5.24,.13-.46-.14-.61-.46-.76-.09-.04-.2-.03-.29-.07-1.5-.73-3.04-1.38-4.33-2.47-.54-.46-1.19-.68-1.92-.37-.39,.16-.82,.25-1.24,.35-.09,.02-.21-.04-.31-.07,.05-.1,.07-.23,.15-.29,.12-.1,.27-.15,.41-.21,.4-.17,.81-.33,1.32-.54-3.88-3.19-6.52-7.04-7.46-11.94Z"/>
        <path d="M4.57,72.51c.16,.04,.33,.09,.49,.14,.04-.03,.08-.06,.12-.09-.51-.22-.61-.59-.43-1.02,.1-.25,.25-.48,.39-.7,.24-.39,.46-.81,.75-1.16,.2-.24,.5-.4,.76-.59,.13-.1,.26-.19,.52-.38-5.61-.11-11.09,.11-16.55-.22-.01-.1-.03-.19-.04-.29,.19-.09,.39-.25,.58-.25,2.59-.02,5.18-.02,7.77-.03,1.17,0,2.34-.04,3.51-.04,2.42,0,4.83,.03,7.25,.05,.43,0,.95,.15,1.27-.03,.28-.16,.34-.71,.51-1.08,.92-1.98,1.73-4.03,2.79-5.93,1.27-2.28,2.71-4.48,4.17-6.65,1.27-1.88,2.66-3.69,4.02-5.5,.73-.97,1.53-1.9,2.3-2.85,.11-.13,.23-.26,.36-.37,.48-.4,.97-.29,1.18,.3,.62,1.79,1.22,3.59,1.83,5.38,.4,1.16,.82,2.31,1.23,3.47,.02,.05,.05,.09,.13,.22,.3-.76,.58-1.42,.83-2.09,.7-1.85,1.38-3.71,2.1-5.56,.15-.38,.42-.72,.63-1.08,.08,0,.15,0,.23,0,1.16,2.61,2.32,5.21,3.55,7.95,.26-.89,.44-1.67,.71-2.42,.71-1.97,1.45-3.94,2.21-5.9,.25-.64,.63-.71,1.1-.15,2.06,2.47,4,5.03,5.66,7.78,1.42,2.35,2.85,4.69,4.13,7.11,.83,1.57,1.29,3.32,1.57,5.09,.11,.68,.14,1.37,.18,2.05,.02,.26,.08,.37,.36,.37,3.07-.03,6.15-.05,9.22-.05,2.23,0,4.46,.01,6.69,.02,.13,0,.26,.04,.5,.07-.74,.45-1.44,.56-2.18,.57-2.01,.01-4.03,.05-6.04,.04-2.59,0-5.17-.05-7.76-.07-.26,0-.52,.02-.78,.03-.22,.74-.35,1.49-.65,2.18-.83,1.92-2.12,3.43-4,4.43-1.57,.84-3.22,1.43-4.95,1.8-.39,.08-.79,.12-1.17,.22-.12,.03-.29,.2-.29,.32-.03,1.12,.03,2.24-.08,3.35-.05,.53-.3,1.11-.63,1.54-.8,1.06-1.72,2.02-2.55,3.06-.34,.42-.74,.57-1.24,.62-2.13,.22-4.26,.41-6.41,.31-1.59-.07-3.19-.15-4.78-.19-1.5-.04-3-.12-4.44-.57-.5-.16-1.09-.23-1.3-.87-.19-.56,0-1.16,.56-1.36,.95-.34,1.92-.64,2.89-.89,.94-.24,1.91-.38,2.87-.58,.13-.03,.33-.2,.33-.3,.02-1.3,.01-2.6,.01-3.94-.03,0-.11-.05-.19-.05-5.28,.06-10.52-.59-15.75-1.07,0,.99-.04,1.97,0,2.94,.06,1.43,.19,2.86,.28,4.28,.04,.55-.32,1.12-.86,1.25-1.76,.43-3.52,.83-5.28,1.23-.51,.12-1.04,.18-1.55,.28-.64,.12-.94-.03-.98-.68-.11-1.75-.2-3.5-.24-5.26-.02-1.01,.06-2.03,.11-3.04,.03-.58,.17-.76,.53-.78,.15,3.03,.29,6.07,.44,9.15,.7-.22,1.28-.43,1.87-.59,1.49-.41,2.99-.8,4.48-1.19,.28-.07,.38-.19,.36-.5-.08-1.82-.14-3.64-.16-5.46,0-.77,.09-1.55,.17-2.32,.04-.44-.13-.48-.52-.4-1.9,.39-3.81,.76-5.71,1.13-.46,.09-.64-.07-.68-.51,2.01-.51,4.01-1.02,6.16-1.57-.55-.18-.96-.33-1.38-.46-.91-.28-1.82-.54-2.72-.84-.63-.21-.67-.34-.39-.83Zm20.99-25.75c-.08-.04-.15-.09-.23-.13-.18,.25-.35,.49-.53,.74-1.17,1.56-2.35,3.1-3.5,4.67-.78,1.07-1.55,2.15-2.26,3.26-1,1.56-1.98,3.13-2.88,4.75-.93,1.66-1.79,3.36-2.62,5.07-.68,1.41-1.35,2.82-1.4,4.45-.04,1.36,.21,2.57,1.22,3.54,.73,.7,1.6,1.18,2.55,1.54,1.43,.53,2.92,.79,4.4,1.1,2.01,.41,4.03,.42,6.06,.46,.12,0,.35-.21,.36-.34,.04-.61,.03-1.22,.02-1.84,0-.44,.07-.81,.55-1,.5-.2,.96-.47,1.46-.66,.99-.38,1.9-.99,3-1.03,.31,0,.61,.01,.92,.03,2.62,.12,5.24,.25,7.86,.36,.49,.02,.65,.23,.64,.7-.03,.92,0,1.83,0,2.75,0,.28,.05,.45,.4,.46,1.07,.02,2.09-.03,3.12-.45,1.39-.56,2.74-1.1,3.89-2.15,1.7-1.54,2.29-3.47,2.33-5.62,.04-2-.58-3.9-1.34-5.72-.58-1.38-1.2-2.75-1.9-4.07-.89-1.67-1.86-3.31-2.85-4.92-.79-1.29-1.66-2.53-2.51-3.77-.53-.77-1.09-1.51-1.66-2.3-.1,.16-.2,.25-.23,.36-.67,1.96-1.31,3.92-2,5.87-.32,.92-.69,1.83-1.09,2.72-.23,.5-.78,.48-1.02-.02-.41-.85-.83-1.69-1.19-2.56-.63-1.52-1.22-3.06-1.82-4.6-.09-.24-.15-.49-.26-.83-.07,.17-.1,.23-.13,.3-.98,2.6-1.97,5.21-2.94,7.81-.13,.34-.35,.7-.69,.65-.23-.03-.48-.41-.58-.69-.75-2.15-1.46-4.31-2.21-6.46-.28-.82-.62-1.62-.93-2.42Zm10.83,28.79c.05-.04,.1-.07,.15-.11,.14,.08,.35,.14,.41,.26,.12,.26,.2,.55,.22,.83,.14,2,.26,3.99,.37,5.99,.03,.6,0,1.19,0,1.91,.2-.14,.27-.16,.31-.21,.73-.87,1.47-1.74,2.18-2.63,.1-.12,.13-.31,.13-.47,0-.7-.02-1.41-.03-2.11-.03-1.69-.08-3.38-.09-5.07,0-1.21,.02-1.21-1.17-1.39-.08-.01-.17-.02-.25-.03-1.55-.11-3.09-.2-4.64-.32-1.12-.09-2.23-.29-3.27,.4-.4,.27-.91,.37-1.36,.54,2.51,.42,5.03,.55,7.53,.85,0,.09,0,.17,0,.26-.25,.07-.5,.2-.75,.19-1.62-.07-3.23-.14-4.84-.26-1.16-.08-2.32-.22-3.55-.34-.07,3.35-.15,6.65-.22,9.96,3.14,.32,6.18,.63,9.13,.93-.09-3.08-.18-6.12-.27-9.17Z"/>
        <path d="M24.62,26.5c.13-.18,.23-.39,.4-.53,1.5-1.22,3.97-1.81,5.91-.82,.23,.12,.42,.29,.65,.41,.27,.14,.52,.35,.31,.62-.1,.12-.51,.09-.73,0-.56-.22-1.06-.57-1.63-.75-1.13-.37-2.25-.17-3.31,.3-.51,.23-.99,.53-1.48,.8-.04-.01-.08-.03-.12-.04Z"/>
        <path d="M34.55,34.88c-.07,.08-.19,.28-.25,.26-.19-.06-.46-.15-.52-.31-.18-.43-.31-.88-.38-1.34-.13-.85-.22-1.7-.31-2.55-.01-.13,.02-.29,.09-.4,.06-.1,.2-.21,.3-.21,.08,0,.19,.17,.21,.27,.11,.61,.16,1.23,.29,1.84,.14,.69,.33,1.37,.49,2.05,.02,.1,.05,.2,.08,.37Z"/>
        <path d="M29.44,31.92c0-.49,.46-.91,.99-.92,.43,0,.83,.44,.83,.93,0,.54-.42,.99-.92,.98-.51,0-.9-.44-.9-1Z"/>
        <path d="M37.37,31.58c0,.61-.42,1.06-.97,1.07-.51,0-.88-.4-.87-.95,.01-.52,.49-.95,1.04-.93,.51,.01,.8,.31,.79,.81Z"/>
        <path d="M32.39,38.65c.3,.11,.46,.15,.61,.22,.6,.26,1.14,.09,1.66-.23,.08-.05,.26-.06,.3-.01,.06,.07,.08,.23,.04,.32-.39,.75-1.93,.85-2.43,.16-.06-.09-.09-.21-.18-.46Z"/>
        <path d="M29.76,64.61c-1.65-.24-3.3-.42-4.93-.76-.71-.15-1.37-.59-2.04-.93-.09-.05-.09-.27-.14-.41,.15,0,.34-.07,.45,0,1.2,.7,2.53,.86,3.87,.97,1.06,.09,2.13,.19,3.19,.31,.11,.01,.29,.21,.27,.27-.05,.17-.17,.34-.31,.47-.07,.06-.23,.01-.35,.01,0,.02,0,.04-.01,.05Z"/>
        <path d="M37.42,61.92c-.54-.03-.69-.18-.68-.71,0-.34,.6-.81,1.01-.78,.43,.03,.53,.31,.5,.68-.03,.54-.33,.83-.83,.8Z"/>
        <path d="M45.44,60.7c0-.44,.28-.67,.84-.67,.48,0,.68,.2,.67,.67,0,.45-.41,.83-.9,.76-.39-.06-.62-.34-.61-.76Z"/>
        <path d="M33.05,55.18c.49,.03,.71,.25,.7,.73-.01,.36-.43,.66-.89,.63-.36-.02-.65-.36-.63-.74,.02-.32,.44-.64,.82-.62Z"/>
        <path d="M30.73,61.61c-.18,.14-.4,.39-.67,.47-.34,.09-.78-.33-.78-.65,0-.33,.49-.78,.85-.76,.51,.03,.47,.46,.59,.95Z"/>
        <path d="M24.19,59.05c.37-.04,.31,.37,.34,.63,.05,.41-.35,.73-.82,.72-.45,0-.56-.3-.59-.66-.02-.28,.55-.69,1.07-.68Z"/>
        <path d="M40.85,55.76c0-.38,.5-.84,.8-.82,.44,.02,.57,.31,.57,.7,0,.4-.35,.73-.78,.68-.35-.04-.68-.18-.59-.56Z"/>
        <path d="M25.51,52.27c.37-.08,.72-.19,1.08-.21,.06,0,.22,.46,.17,.66-.04,.15-.34,.27-.54,.33-.5,.14-.58-.25-.72-.79Z"/>
        <path d="M16.51,61.05c.02-.41,.37-.5,.67-.47,.17,.02,.42,.29,.46,.48,.07,.41-.24,.57-.61,.57-.35,0-.61-.12-.52-.58Z"/>
        <path d="M22.03,55.29c0,.55-.28,.85-.68,.79-.16-.02-.37-.23-.41-.39-.08-.3,.34-.73,.66-.68,.18,.03,.34,.22,.43,.28Z"/>
      </g>
    </g>
  </g>
</svg>